<svg width="48" height="48" viewBox="0 0 48 48" fill="none" xmlns="http://www.w3.org/2000/svg" xmlns:xlink="http://www.w3.org/1999/xlink">
<path d="M21,7.5C12.992,7.5 6.5,13.992 6.5,22C6.5,25.526 7.757,28.755 9.849,31.269C10.176,31.662 10.28,32.194 10.126,32.682L8.649,37.341L14.656,35.449C14.985,35.345 15.339,35.358 15.66,35.485C17.31,36.14 19.111,36.5 21,36.5L25,36.5C33.008,36.5 39.5,30.008 39.5,22C39.5,13.992 33.008,7.5 25,7.5L21,7.5ZM3.5,22C3.5,12.335 11.335,4.5 21,4.5L25,4.5C34.665,4.5 42.5,12.335 42.5,22C42.5,31.665 34.665,39.5 25,39.5L21,39.5C18.918,39.5 16.918,39.136 15.062,38.466L8.633,40.492C6.702,41.1 4.887,39.282 5.499,37.352L6.476,37.662L5.499,37.352L7.025,32.535C4.813,29.605 3.5,25.954 3.5,22Z" clip-rule="evenodd" fill-rule="evenodd" fill="#7D848D"/>
<circle cx="16" cy="22" r="2" fill="#7D848D"/>
<circle cx="23" cy="22" r="2" fill="#7D848D"/>
<circle cx="30" cy="22" r="2" fill="#7D848D"/>
</svg>
