<svg width="34" height="22" viewBox="0 0 34 22" fill="none" xmlns="http://www.w3.org/2000/svg" xmlns:xlink="http://www.w3.org/1999/xlink">
<path d="M31.539,0L29.616,0C28.554,0 27.693,0.895 27.693,2L27.693,19.333C27.693,20.438 28.554,21.333 29.616,21.333L31.539,21.333C32.601,21.333 33.462,20.438 33.462,19.333L33.462,2C33.462,0.895 32.601,0 31.539,0ZM20.642,4.667L22.565,4.667C23.627,4.667 24.488,5.562 24.488,6.667L24.488,19.333C24.488,20.438 23.627,21.333 22.565,21.333L20.642,21.333C19.579,21.333 18.719,20.438 18.719,19.333L18.719,6.667C18.719,5.562 19.579,4.667 20.642,4.667ZM13.59,9.333L11.667,9.333C10.605,9.333 9.744,10.229 9.744,11.333L9.744,19.333C9.744,20.438 10.605,21.333 11.667,21.333L13.59,21.333C14.652,21.333 15.513,20.438 15.513,19.333L15.513,11.333C15.513,10.229 14.652,9.333 13.59,9.333ZM4.615,13.333L2.692,13.333C1.63,13.333 0.769,14.229 0.769,15.333L0.769,19.333C0.769,20.438 1.63,21.333 2.692,21.333L4.615,21.333C5.678,21.333 6.539,20.438 6.539,19.333L6.539,15.333C6.539,14.229 5.678,13.333 4.615,13.333Z" clip-rule="evenodd" fill-rule="evenodd" fill="#FFFFFF"/>
</svg>
