<svg width="32" height="32" viewBox="0 0 32 32" fill="none" xmlns="http://www.w3.org/2000/svg" xmlns:xlink="http://www.w3.org/1999/xlink">
<circle cx="16" cy="16" r="13.333" stroke="#FFFFFF" stroke-width="1.1" stroke-miterlimit="3.999327"/>
<path d="M19,16L19.88,16.66C20.023,16.47 20.1,16.238 20.1,16L19,16ZM20.1,10C20.1,9.392 19.608,8.9 19,8.9C18.392,8.9 17.9,9.392 17.9,10L20.1,10ZM15.12,19.34C14.755,19.826 14.854,20.515 15.34,20.88C15.826,21.245 16.515,21.146 16.88,20.66L15.12,19.34ZM20.1,16L20.1,10L17.9,10L17.9,16L20.1,16ZM18.12,15.34L15.12,19.34L16.88,20.66L19.88,16.66L18.12,15.34Z" transform="rotate(360 17.5 15)" fill="#FFFFFF"/>
</svg>
