<svg width="28" height="30" viewBox="0 0 28 30" fill="none" xmlns="http://www.w3.org/2000/svg" xmlns:xlink="http://www.w3.org/1999/xlink">
<path d="M24.9,12.519C24.9,15.424 23.203,18.882 20.847,21.671C19.684,23.048 18.402,24.21 17.17,25.02C15.915,25.844 14.817,26.233 14,26.233L14,28.433C15.433,28.433 16.96,27.789 18.377,26.858C19.817,25.913 21.254,24.599 22.528,23.09C25.047,20.108 27.1,16.159 27.1,12.519L24.9,12.519ZM14,26.233C13.183,26.233 12.085,25.844 10.83,25.02C9.598,24.21 8.316,23.048 7.153,21.671C4.797,18.882 3.1,15.424 3.1,12.519L0.9,12.519C0.9,16.159 2.953,20.108 5.472,23.09C6.746,24.599 8.183,25.913 9.623,26.858C11.04,27.789 12.567,28.433 14,28.433L14,26.233ZM3.1,12.519C3.1,6.593 7.967,1.767 14,1.767L14,-0.433C6.778,-0.433 0.9,5.353 0.9,12.519L3.1,12.519ZM14,1.767C20.033,1.767 24.9,6.593 24.9,12.519L27.1,12.519C27.1,5.353 21.222,-0.433 14,-0.433L14,1.767Z" fill="#FFFFFF"/>
</svg>
