<svg width="52" height="52" viewBox="0 0 52 52" fill="none" xmlns="http://www.w3.org/2000/svg" xmlns:xlink="http://www.w3.org/1999/xlink">
<path d="M34.667,49.292L17.333,49.292C4.875,49.292 4.875,42.683 4.875,36.833L4.875,34.667C4.875,29.835 4.875,24.375 15.167,24.375C17.745,24.375 18.698,25.003 20.042,26C20.107,26.065 20.193,26.108 20.258,26.195L22.468,28.535C24.332,30.507 27.712,30.507 29.575,28.535L31.785,26.195C31.85,26.13 31.915,26.065 32.002,26C33.345,24.982 34.298,24.375 36.877,24.375C47.168,24.375 47.168,29.835 47.168,34.667L47.168,36.833C47.125,45.11 42.943,49.292 34.667,49.292ZM15.167,27.625C8.125,27.625 8.125,29.835 8.125,34.667L8.125,36.833C8.125,42.77 8.125,46.042 17.333,46.042L34.667,46.042C41.123,46.042 43.875,43.29 43.875,36.833L43.875,34.667C43.875,29.835 43.875,27.625 36.833,27.625C35.273,27.625 34.948,27.82 34.017,28.513L31.915,30.745C30.355,32.392 28.253,33.302 26,33.302C23.747,33.302 21.645,32.392 20.085,30.745L17.983,28.513C17.052,27.82 16.727,27.625 15.167,27.625Z" fill="#E6E6E6"/>
<path d="M41.167,27.625C40.278,27.625 39.542,26.888 39.542,26L39.542,13C39.542,8.168 39.542,5.958 32.5,5.958L19.5,5.958C12.458,5.958 12.458,8.168 12.458,13L12.458,26C12.458,26.888 11.722,27.625 10.833,27.625C9.945,27.625 9.208,26.888 9.208,26L9.208,13C9.208,8.168 9.208,2.708 19.5,2.708L32.5,2.708C42.792,2.708 42.792,8.168 42.792,13L42.792,26C42.792,26.888 42.055,27.625 41.167,27.625Z" fill="#E6E6E6"/>
<path d="M30.073,21.623L22.858,21.623C21.97,21.623 21.233,20.887 21.233,19.998C21.233,19.11 21.97,18.373 22.858,18.373L30.073,18.373C30.961,18.373 31.698,19.11 31.698,19.998C31.698,20.887 30.983,21.623 30.073,21.623Z" fill="#E6E6E6"/>
<path d="M31.893,15.123L21.059,15.123C20.171,15.123 19.434,14.387 19.434,13.498C19.434,12.61 20.171,11.873 21.059,11.873L31.893,11.873C32.781,11.873 33.518,12.61 33.518,13.498C33.518,14.387 32.803,15.123 31.893,15.123Z" fill="#E6E6E6"/>
</svg>
