<svg width="88" height="88" viewBox="0 0 88 88" fill="none" xmlns="http://www.w3.org/2000/svg" xmlns:xlink="http://www.w3.org/1999/xlink">
<path d="M88,44C88,19.699 68.301,0 44,0C19.699,0 0,19.699 0,44C0,65.962 16.09,84.165 37.125,87.466L37.125,56.719L25.953,56.719L25.953,44L37.125,44L37.125,34.306C37.125,23.279 43.694,17.188 53.744,17.188C58.558,17.188 63.594,18.047 63.594,18.047L63.594,28.875L58.045,28.875C52.58,28.875 50.875,32.267 50.875,35.746L50.875,44L63.078,44L61.127,56.719L50.875,56.719L50.875,87.466C71.91,84.165 88,65.962 88,44Z" fill="#1877F2"/>
<path d="M61.127,56.719L63.078,44L50.875,44L50.875,35.746C50.875,32.267 52.58,28.875 58.046,28.875L63.594,28.875L63.594,18.047C63.594,18.047 58.559,17.188 53.744,17.188C43.694,17.188 37.125,23.279 37.125,34.306L37.125,44L25.953,44L25.953,56.719L37.125,56.719L37.125,87.466C39.399,87.822 41.698,88 44,88C46.339,88 48.635,87.817 50.875,87.466L50.875,56.719L61.127,56.719Z" fill="#FFFFFF"/>
</svg>
