<svg width="78" height="64" viewBox="0 0 78 64" fill="none" xmlns="http://www.w3.org/2000/svg" xmlns:xlink="http://www.w3.org/1999/xlink">
<path d="M17.268,44.541L14.935,64L0.514,64L0.992,60.773C1.166,58.651 1.697,56.613 2.533,54.713C3.951,51.545 6.292,48.966 9.166,47.197L9.166,47.192C9.313,47.098 9.461,47.018 9.609,46.928C11.919,45.597 14.533,44.765 17.268,44.541Z" fill="#186BE7"/>
<path d="M76.637,64L62.174,64L59.689,43.241C61.331,43.375 62.934,43.728 64.449,44.282C68.825,45.864 72.503,49.073 74.425,53.421C75.261,55.307 75.788,57.35 75.967,59.473L76.637,64Z" fill="#186BE7"/>
<path d="M66.951,45.588L64.485,64L11.374,64L9.166,47.197L9.166,47.192C9.313,47.098 9.461,47.018 9.609,46.928C12.941,44.963 20.506,42.702 25.91,41.236C29.723,40.202 33.656,39.689 37.608,39.707L41.809,39.727C44.743,39.74 47.666,40.048 50.54,40.643C55.189,41.606 62.088,43.151 64.448,44.282C65.352,44.706 66.187,45.145 66.951,45.588Z" fill="#CFD8E2"/>
<path d="M50.858,21.764C50.858,21.764 52.049,25.03 46.724,26.928L47.094,53.62L31.297,46.539L32.699,31.11L38.759,28.505L40.205,25.895C40.205,25.895 42.302,23.188 42.556,22.921C42.809,22.655 45.054,20.68 45.054,20.68L49.878,22.135L50.858,21.764Z" fill="#FAB9C9"/>
<path d="M44.004,29.667C44.995,25.74 42.435,25.886 39.562,27.059L38.761,28.505L33.138,30.922L32.542,33.015L31.986,39.697C31.986,39.697 41.979,37.693 44.004,29.667Z" fill="#1B1E28"/>
<path d="M28.323,19.588C28.323,19.588 23.941,17.602 25.48,13.096C27.019,8.589 27.057,8.59 26.738,6.466C26.418,4.342 27.235,-0.946 33.438,0.536C39.642,2.018 40.482,2.178 43.648,0.855C46.815,-0.467 51.183,2.418 50.501,9.431C49.923,15.391 48.659,13.742 49.86,16.934C51.061,20.126 50.355,20.924 48.25,21.427C43.373,22.593 41.004,20.269 41.004,20.159C41.004,20.049 40.042,17.605 39.441,17.285C38.84,16.964 33.35,15.442 33.23,15.602C33.11,15.762 31.298,18.276 31.298,18.276L28.323,19.588Z" fill="#1B1E28"/>
<path d="M25.82,20.249C27.601,20.346 29.407,20.259 31.192,20.243C31.331,20.241 31.332,20.024 31.192,20.025C29.407,20.039 27.6,19.982 25.82,20.109C25.73,20.115 25.729,20.245 25.82,20.249Z" fill="#1B1E28"/>
<path d="M28.334,13.437L28.334,27.2C28.334,27.2 27.904,33.735 32.81,33.997C37.716,34.259 40.674,34.016 42.266,32.275C43.857,30.533 45.355,27.425 44.231,19.167C43.108,10.909 41.929,9.505 41.929,9.505L35.805,7.651L30.019,8.662L28.334,13.437Z" fill="#FAB9C9"/>
<path d="M28.326,27.783C28.356,29.39 28.804,33.784 32.81,33.997C37.716,34.259 40.674,34.016 42.266,32.275C43.451,30.978 44.582,28.922 44.621,24.551C44.614,23.129 44.496,21.476 44.231,19.534C44.078,18.4 43.941,17.37 43.818,16.43C42.837,10.587 41.929,9.505 41.929,9.505L35.806,7.651L30.019,8.662L28.412,13.217L28.334,13.804L28.334,13.944C28.334,13.944 28.629,13.186 29.851,13.228C31.073,13.27 30.946,12.694 32.379,11.107C33.812,9.52 34.514,11.528 35.646,12.469C36.777,13.41 38.376,12.16 40.229,12.104C42.084,12.048 41.718,14.267 41.367,14.871C41.016,15.475 40.693,16.332 41.817,16.739C42.94,17.146 43.333,17.328 43.474,20.081C43.614,22.834 42.87,24.786 41.451,25.713C40.033,26.64 37.042,26.429 34.963,24.842C32.884,23.255 30.63,24.779 29.542,25.249C28.968,25.497 28.41,25.176 28.334,25.129L28.334,27.2L28.334,27.567C28.334,27.567 28.329,27.647 28.326,27.783Z" fill="#E5A0B1"/>
<path d="M32.572,17.002C32.349,18.769 32.084,20.764 32.318,22.533C32.404,23.183 32.787,23.685 33.665,23.502C33.889,23.455 33.793,23.187 33.569,23.224C32.191,23.449 32.665,20.592 32.678,20.09C32.707,19.061 32.756,18.032 32.745,17.002C32.744,16.91 32.582,16.914 32.572,17.002Z" fill="#EAAABA"/>
<circle cx="35.448" cy="20.924" r="0.717" fill="#1B1E28"/>
<circle cx="30.002" cy="20.924" r="0.717" fill="#1B1E28"/>
<path d="M28.681,18.425C29.102,18.256 29.451,18.018 29.917,17.961C30.431,17.897 30.844,18.046 31.32,18.208C31.518,18.275 31.595,18.002 31.452,17.895C30.69,17.327 29.103,17.419 28.546,18.249C28.49,18.331 28.584,18.465 28.681,18.425Z" fill="#1B1E28"/>
<path d="M34.823,18.203C35.265,18.032 35.613,17.84 36.108,17.863C36.602,17.886 37.005,18.09 37.461,18.252C37.66,18.322 37.734,18.047 37.593,17.939C36.873,17.389 35.273,17.17 34.687,18.027C34.63,18.109 34.726,18.24 34.823,18.203Z" fill="#1B1E28"/>
<path d="M39.143,22.294C39.398,22.92 38.915,23.707 38.064,24.052C37.213,24.399 36.318,24.172 36.064,23.546C35.81,22.922 36.293,22.135 37.144,21.789C37.994,21.444 38.89,21.67 39.143,22.294Z" fill="#EAAABA"/>
<path d="M29.472,21.927C29.084,21.752 28.682,21.699 28.332,21.751L28.332,24.145C28.371,24.165 28.41,24.185 28.451,24.203C29.306,24.587 30.229,24.389 30.51,23.76C30.792,23.132 30.327,22.311 29.472,21.927Z" fill="#EAAABA"/>
<path d="M31.991,19.734C32.139,21.266 31.298,22.752 29.751,23.16C28.006,23.62 26.231,22.422 25.962,20.659C25.709,19.002 26.858,17.45 28.513,17.196C30.229,16.935 31.655,18.111 31.994,19.756C32.016,19.863 32.178,19.818 32.156,19.712C31.803,17.998 30.277,16.73 28.476,17.014C26.74,17.289 25.523,18.944 25.778,20.683C26.032,22.419 27.708,23.648 29.437,23.394C31.24,23.13 32.328,21.482 32.16,19.733C32.149,19.627 31.981,19.626 31.991,19.734Z" fill="#1B1E28"/>
<path d="M39.719,20.278C39.629,21.935 38.387,23.336 36.66,23.336C35.003,23.336 33.602,21.935 33.602,20.278C33.602,18.735 34.811,17.413 36.334,17.254C38.18,17.063 39.622,18.476 39.719,20.278C39.724,20.386 39.893,20.387 39.887,20.278C39.792,18.525 38.49,17.052 36.66,17.052C34.91,17.052 33.425,18.521 33.434,20.278C33.442,21.973 34.794,23.406 36.489,23.495C38.385,23.595 39.789,22.098 39.887,20.278C39.893,20.17 39.725,20.17 39.719,20.278Z" fill="#1B1E28"/>
<path d="M32.014,20.093C32.477,20.175 33.032,20.179 33.497,20.114C33.563,20.105 33.563,19.992 33.497,19.983C33.032,19.919 32.478,19.922 32.014,20.004C31.969,20.011 31.969,20.085 32.014,20.093Z" fill="#1B1E28"/>
<path d="M39.667,20.15C41.449,20.246 43.255,20.159 45.039,20.143C45.179,20.142 45.179,19.924 45.039,19.925C43.255,19.94 41.447,19.882 39.667,20.009C39.577,20.016 39.577,20.145 39.667,20.15Z" fill="#1B1E28"/>
<path d="M50.847,21.764C49.515,18.37 44.414,20.68 44.414,20.68L44,24L46.514,23.04C46.604,23.265 48.948,23.31 48.948,23.31L50.847,21.764Z" fill="#FAB9C9"/>
<path d="M46.394,20.843C47.793,20.629 49.143,21.854 48.984,23.283C48.96,23.507 48.605,23.51 48.629,23.283C48.759,22.108 47.681,21.003 46.489,21.185C46.265,21.22 46.169,20.878 46.394,20.843Z" fill="#E5A0B1"/>
<path d="M48.33,21.886C47.744,22.142 47.306,22.615 47.114,23.228C47.047,23.446 46.704,23.353 46.773,23.134C46.988,22.439 47.482,21.871 48.151,21.579C48.359,21.489 48.54,21.794 48.33,21.886Z" fill="#E5A0B1"/>
<path d="M30.377,1.905C28.326,3.292 27.906,5.929 28.853,8.118C28.883,8.19 28.987,8.128 28.957,8.058C28.037,5.933 28.442,3.358 30.438,2.009C30.502,1.966 30.441,1.861 30.377,1.905Z" fill="#FFFFFF"/>
<path d="M26.808,16.714C26.979,17.061 27.137,17.411 27.349,17.736C27.391,17.8 27.495,17.74 27.453,17.675C27.24,17.35 27.083,17 26.912,16.653C26.877,16.584 26.773,16.645 26.808,16.714Z" fill="#FFFFFF"/>
<path d="M41.988,12.877C41.988,13.011 41.988,13.144 41.988,13.278C41.988,13.355 42.109,13.355 42.109,13.278C42.109,13.144 42.109,13.011 42.109,12.877C42.109,12.799 41.988,12.799 41.988,12.877Z" fill="#FFFFFF"/>
<path d="M41.834,14.61C41.797,14.659 41.79,14.721 41.754,14.77C41.708,14.832 41.812,14.892 41.858,14.831C41.894,14.782 41.902,14.72 41.938,14.67C41.984,14.608 41.879,14.548 41.834,14.61Z" fill="#FFFFFF"/>
<path d="M48.796,14.36C48.655,15.71 48.682,16.79 49.199,18.062C49.228,18.133 49.344,18.102 49.315,18.031C48.806,16.78 48.777,15.683 48.917,14.36C48.925,14.282 48.804,14.283 48.796,14.36Z" fill="#FFFFFF"/>
<path d="M32.809,33.998C37.715,34.26 40.673,34.016 42.266,32.275C43.857,30.533 45.355,27.425 44.231,19.167C43.108,10.909 42.878,7.968 42.878,7.968L38.61,5.653L29.287,6.225L28.334,13.437L28.334,13.577C28.334,13.577 28.628,12.819 29.851,12.861C31.073,12.903 30.946,12.327 32.378,10.74C33.811,9.153 34.513,11.161 35.645,12.102C36.777,13.043 38.375,11.793 40.229,11.737C42.083,11.681 41.718,13.9 41.367,14.504C41.016,15.108 40.693,15.964 41.817,16.372C42.94,16.779 43.333,16.961 43.474,19.714C43.614,22.467 42.87,24.419 41.451,25.346C40.033,26.273 37.041,26.062 34.963,24.475C32.884,22.888 30.629,24.412 29.542,24.883C28.967,25.13 28.41,24.809 28.334,24.762L28.334,27.2C28.334,27.2 27.904,33.736 32.809,33.998Z" fill="#1B1E28"/>
<path d="M27.759,9.351C27.803,10.613 27.033,11.637 26.557,12.753C26.221,13.542 26.173,14.397 26.197,15.241C26.199,15.318 26.319,15.319 26.317,15.241C26.28,13.957 26.574,12.954 27.134,11.81C27.538,10.986 27.912,10.29 27.879,9.351C27.877,9.273 27.757,9.273 27.759,9.351Z" fill="#FFFFFF"/>
<path d="M41.952,3.558C43.368,3.775 44.816,3.476 46.211,3.872C48.924,4.641 48.292,8.67 47.446,10.563C47.414,10.633 47.518,10.694 47.549,10.623C48.394,8.733 48.735,6.279 47.414,4.517C46.25,2.966 43.6,3.689 41.984,3.442C41.908,3.431 41.875,3.546 41.952,3.558Z" fill="#FFFFFF"/>
<path d="M35.094,9.912C35.215,13.539 39.763,9.509 41.323,11.317C41.373,11.375 41.458,11.29 41.408,11.231C39.814,9.385 35.328,13.317 35.214,9.911C35.212,9.834 35.092,9.834 35.094,9.912Z" fill="#FFFFFF"/>
<path d="M32.63,34.085C34.643,34.098 36.688,34.342 38.692,34.049C40.85,33.733 42.317,32.894 43.441,31.019C43.481,30.953 43.377,30.892 43.337,30.959C42.104,33.015 40.391,33.773 38.057,33.997C36.254,34.171 34.435,33.976 32.63,33.964C32.553,33.964 32.553,34.084 32.63,34.085Z" fill="#FFFFFF"/>
<path d="M32.341,26.283C32.846,27.409 34.931,26.956 34.933,25.726C34.933,25.595 34.753,25.546 34.687,25.659C34.452,26.06 34.298,26.436 33.796,26.565C33.271,26.701 32.887,26.423 32.484,26.14C32.389,26.074 32.303,26.198 32.341,26.283Z" fill="#FFFFFF"/>
<path d="M31.709,42.973C36.079,48.091 40.847,47.423 45.873,42.973L45.874,64L31.709,64L31.709,42.973L31.709,42.973Z" fill="#E3EEF1"/>
<path d="M32.092,37.661L22.16,41.07C26.736,48.922 29.157,56.542 29.136,63.902L33.575,63.902C35.85,55.961 35.072,47.132 32.092,37.661Z" fill="#186BE7"/>
<path d="M46.761,37.661L56.693,41.07C52.117,48.922 49.696,56.542 49.717,63.902L45.277,63.902C43.004,55.961 43.781,47.132 46.761,37.661Z" fill="#186BE7"/>
</svg>
