<svg width="40" height="40" viewBox="0 0 40 40" fill="none" xmlns="http://www.w3.org/2000/svg" xmlns:xlink="http://www.w3.org/1999/xlink">
<path d="M33.076,9.32C33.076,10.649 31.999,11.723 30.674,11.723C29.35,11.723 28.271,10.649 28.271,9.32C28.271,7.995 29.35,6.922 30.674,6.922C31.999,6.922 33.076,7.995 33.076,9.32Z" fill="#000000"/>
<path d="M36.277,11.919C36.188,9.969 35.862,8.91 35.591,8.206C35.228,7.273 34.794,6.606 34.09,5.906C33.394,5.206 32.727,4.773 31.794,4.413C31.09,4.139 30.027,3.811 28.077,3.718C25.968,3.626 25.344,3.606 19.997,3.606C14.656,3.606 14.026,3.626 11.918,3.718C9.968,3.811 8.909,4.139 8.206,4.413C7.268,4.773 6.605,5.206 5.906,5.906C5.201,6.606 4.767,7.273 4.408,8.206C4.137,8.91 3.806,9.969 3.722,11.919C3.619,14.028 3.601,14.662 3.601,19.998C3.601,25.344 3.619,25.973 3.722,28.082C3.806,30.032 4.137,31.09 4.408,31.8C4.767,32.732 5.201,33.395 5.906,34.095C6.605,34.794 7.268,35.228 8.206,35.592C8.909,35.867 9.968,36.19 11.918,36.283C14.026,36.376 14.656,36.399 19.997,36.399C25.344,36.399 25.968,36.376 28.077,36.283C30.027,36.19 31.09,35.867 31.794,35.592C32.727,35.228 33.394,34.794 34.09,34.095C34.794,33.395 35.228,32.732 35.591,31.8C35.862,31.09 36.188,30.032 36.277,28.082C36.375,25.973 36.399,25.344 36.399,19.998C36.399,14.662 36.375,14.028 36.277,11.919L36.277,11.919ZM39.878,28.246C39.78,30.377 39.444,31.833 38.945,33.101C38.437,34.416 37.756,35.531 36.641,36.646C35.531,37.756 34.416,38.437 33.101,38.951C31.828,39.445 30.377,39.786 28.245,39.878C26.113,39.981 25.432,40 19.997,40C14.568,40 13.882,39.981 11.75,39.878C9.623,39.786 8.173,39.445 6.894,38.951C5.583,38.437 4.468,37.756 3.358,36.646C2.243,35.531 1.562,34.416 1.049,33.101C0.555,31.833 0.219,30.377 0.116,28.246C0.023,26.114 0,25.432 0,19.998C0,14.568 0.023,13.887 0.116,11.755C0.219,9.628 0.555,8.173 1.049,6.899C1.562,5.589 2.243,4.469 3.358,3.359C4.468,2.249 5.583,1.563 6.894,1.05C8.173,0.556 9.623,0.219 11.75,0.122C13.882,0.024 14.568,0 19.997,0C25.432,0 26.113,0.024 28.245,0.122C30.377,0.219 31.828,0.556 33.101,1.05C34.416,1.563 35.531,2.249 36.641,3.359C37.756,4.469 38.437,5.589 38.945,6.899C39.444,8.173 39.78,9.628 39.878,11.755C39.976,13.887 40,14.568 40,19.998C40,25.432 39.976,26.114 39.878,28.246L39.878,28.246Z" fill="#000000"/>
<path d="M19.997,13.332C16.317,13.332 13.331,16.313 13.331,19.993C13.331,23.678 16.317,26.663 19.997,26.663C23.678,26.663 26.668,23.678 26.668,19.993C26.668,16.313 23.678,13.332 19.997,13.332L19.997,13.332ZM19.997,30.269C14.324,30.269 9.73,25.665 9.73,19.993C9.73,14.325 14.324,9.726 19.997,9.726C25.669,9.726 30.268,14.325 30.268,19.993C30.268,25.665 25.669,30.269 19.997,30.269Z" fill="#000000"/>
</svg>
