<svg width="44" height="44" viewBox="0 0 44 44" fill="none" xmlns="http://www.w3.org/2000/svg" xmlns:xlink="http://www.w3.org/1999/xlink">
<path d="M0.063,16.136C-0.584,16.653 -0.689,17.597 -0.171,18.244C0.346,18.891 1.29,18.996 1.937,18.478L0.063,16.136ZM19.007,2.902L19.944,4.073L19.944,4.073L19.007,2.902ZM24.148,2.902L23.211,4.073L23.211,4.073L24.148,2.902ZM41.218,18.478C41.865,18.996 42.809,18.891 43.326,18.244C43.844,17.597 43.739,16.653 43.092,16.136L41.218,18.478ZM1.937,18.478L19.944,4.073L18.07,1.731L0.063,16.136L1.937,18.478ZM19.944,4.073C20.899,3.309 22.256,3.309 23.211,4.073L25.086,1.731C23.035,0.09 20.12,0.09 18.07,1.731L19.944,4.073ZM23.211,4.073L41.218,18.478L43.092,16.136L25.086,1.731L23.211,4.073Z" fill="#1F1F1F"/>
<path d="M16.387,5.062L17.333,6.226L17.333,6.226L16.387,5.062ZM8.156,11.75L7.21,10.586L7.21,10.586L8.156,11.75ZM5.515,14.41L4.161,13.766L4.161,13.766L5.515,14.41ZM7.526,39.589L8.587,38.529L8.587,38.528L7.526,39.589ZM35.629,39.589L34.568,38.528L34.568,38.529L35.629,39.589ZM37.64,14.41L38.994,13.766L38.994,13.766L37.64,14.41ZM34.999,11.75L35.945,10.586L35.945,10.586L34.999,11.75ZM26.768,5.062L27.714,3.898L27.714,3.898L26.768,5.062ZM15.441,3.898L7.21,10.586L9.102,12.914L17.333,6.226L15.441,3.898ZM7.21,10.586C5.826,11.71 4.74,12.549 4.161,13.766L6.869,15.055C7.089,14.593 7.497,14.218 9.102,12.914L7.21,10.586ZM4.161,13.766C3.581,14.983 3.615,16.355 3.615,18.138L6.615,18.138C6.615,16.07 6.65,15.517 6.869,15.055L4.161,13.766ZM3.615,18.138L3.615,25.538L6.615,25.538L6.615,18.138L3.615,18.138ZM3.615,25.538C3.615,29.376 3.612,32.405 3.93,34.77C4.254,37.177 4.935,39.119 6.466,40.65L8.587,38.528C7.707,37.648 7.182,36.445 6.903,34.37C6.619,32.252 6.615,29.461 6.615,25.538L3.615,25.538ZM6.466,40.65C7.996,42.18 9.938,42.862 12.346,43.185C14.711,43.503 17.74,43.5 21.577,43.5L21.577,40.5C17.655,40.5 14.864,40.497 12.746,40.212C10.671,39.933 9.467,39.409 8.587,38.529L6.466,40.65ZM21.577,43.5C25.415,43.5 28.444,43.503 30.809,43.185C33.217,42.862 35.159,42.18 36.689,40.65L34.568,38.529C33.688,39.409 32.484,39.933 30.409,40.212C28.291,40.497 25.5,40.5 21.577,40.5L21.577,43.5ZM36.689,40.65C38.22,39.119 38.901,37.177 39.225,34.77C39.543,32.405 39.539,29.376 39.539,25.538L36.539,25.538C36.539,29.461 36.536,32.252 36.251,34.37C35.972,36.445 35.448,37.648 34.568,38.528L36.689,40.65ZM39.539,25.538L39.539,18.138L36.539,18.138L36.539,25.538L39.539,25.538ZM39.539,18.138C39.539,16.355 39.574,14.983 38.994,13.766L36.286,15.055C36.505,15.517 36.539,16.07 36.539,18.138L39.539,18.138ZM38.994,13.766C38.415,12.549 37.329,11.71 35.945,10.586L34.053,12.914C35.658,14.218 36.066,14.593 36.286,15.055L38.994,13.766ZM35.945,10.586L27.714,3.898L25.822,6.226L34.053,12.914L35.945,10.586ZM27.714,3.898C26.5,2.912 25.486,2.084 24.586,1.519C23.651,0.932 22.696,0.532 21.577,0.532L21.577,3.532C21.92,3.532 22.317,3.637 22.991,4.06C23.699,4.505 24.55,5.193 25.822,6.226L27.714,3.898ZM21.577,0.532C20.459,0.532 19.503,0.932 18.569,1.519C17.669,2.084 16.655,2.912 15.441,3.898L17.333,6.226C18.605,5.193 19.456,4.505 20.164,4.06C20.838,3.637 21.235,3.532 21.577,3.532L21.577,0.532Z" fill="#1F1F1F"/>
<line x1="16.947" y1="28.668" x2="26.207" y2="28.668" stroke="#1F1F1F" stroke-width="1.5" stroke-miterlimit="3.999327" stroke-linecap="round"/>
</svg>
