<svg width="194" height="16" viewBox="0 0 194 16" fill="none" xmlns="http://www.w3.org/2000/svg" xmlns:xlink="http://www.w3.org/1999/xlink">
<path d="M13.258,13.238L14.569,10.793L9.363,8.011L14.569,5.249L13.258,2.762L8.314,6.198L8.637,0L5.933,0L6.255,6.198L1.312,2.762L0,5.249L5.226,8.011L0,10.793L1.312,13.238L6.255,9.845L5.933,16L8.637,16L8.314,9.866L13.258,13.238Z" fill="#7D848D"/>
<path d="M33.194,13.238L34.506,10.793L29.3,8.011L34.506,5.249L33.194,2.762L28.25,6.198L28.573,0L25.869,0L26.192,6.198L21.248,2.762L19.937,5.249L25.163,8.011L19.937,10.793L21.248,13.238L26.192,9.845L25.869,16L28.573,16L28.25,9.866L33.194,13.238Z" fill="#7D848D"/>
<path d="M53.131,13.238L54.443,10.793L49.237,8.011L54.443,5.249L53.131,2.762L48.187,6.198L48.51,0L45.806,0L46.129,6.198L41.185,2.762L39.874,5.249L45.1,8.011L39.874,10.793L41.185,13.238L46.129,9.845L45.806,16L48.51,16L48.187,9.866L53.131,13.238Z" fill="#7D848D"/>
<path d="M73.068,13.238L74.379,10.793L69.173,8.011L74.379,5.249L73.068,2.762L68.124,6.198L68.447,0L65.743,0L66.066,6.198L61.122,2.762L59.81,5.249L65.037,8.011L59.81,10.793L61.122,13.238L66.066,9.845L65.743,16L68.447,16L68.124,9.866L73.068,13.238Z" fill="#7D848D"/>
<path d="M93.005,13.238L94.316,10.793L89.11,8.011L94.316,5.249L93.005,2.762L88.061,6.198L88.384,0L85.68,0L86.002,6.198L81.059,2.762L79.747,5.249L84.973,8.011L79.747,10.793L81.059,13.238L86.002,9.845L85.68,16L88.384,16L88.061,9.866L93.005,13.238Z" fill="#7D848D"/>
<path d="M112.941,13.238L114.253,10.793L109.047,8.011L114.253,5.249L112.941,2.762L107.998,6.198L108.32,0L105.616,0L105.939,6.198L100.995,2.762L99.684,5.249L104.91,8.011L99.684,10.793L100.995,13.238L105.939,9.845L105.616,16L108.32,16L107.998,9.866L112.941,13.238Z" fill="#7D848D"/>
<path d="M132.878,13.238L134.19,10.793L128.984,8.011L134.19,5.249L132.878,2.762L127.934,6.198L128.257,0L125.553,0L125.876,6.198L120.932,2.762L119.621,5.249L124.847,8.011L119.621,10.793L120.932,13.238L125.876,9.845L125.553,16L128.257,16L127.934,9.866L132.878,13.238Z" fill="#7D848D"/>
<path d="M152.815,13.238L154.126,10.793L148.92,8.011L154.126,5.249L152.815,2.762L147.871,6.198L148.194,0L145.49,0L145.813,6.198L140.869,2.762L139.557,5.249L144.784,8.011L139.557,10.793L140.869,13.238L145.813,9.845L145.49,16L148.194,16L147.871,9.866L152.815,13.238Z" fill="#7D848D"/>
<path d="M172.752,13.238L174.063,10.793L168.857,8.011L174.063,5.249L172.752,2.762L167.808,6.198L168.131,0L165.427,0L165.75,6.198L160.806,2.762L159.494,5.249L164.72,8.011L159.494,10.793L160.806,13.238L165.75,9.845L165.427,16L168.131,16L167.808,9.866L172.752,13.238Z" fill="#7D848D"/>
<path d="M192.688,13.238L194,10.793L188.794,8.011L194,5.249L192.688,2.762L187.745,6.198L188.067,0L185.363,0L185.686,6.198L180.742,2.762L179.431,5.249L184.657,8.011L179.431,10.793L180.742,13.238L185.686,9.845L185.363,16L188.067,16L187.745,9.866L192.688,13.238Z" fill="#7D848D"/>
</svg>
