<svg width="48" height="48" viewBox="0 0 48 48" fill="none" xmlns="http://www.w3.org/2000/svg" xmlns:xlink="http://www.w3.org/1999/xlink">
<path d="M10.627,25.831L9.136,25.661L9.136,25.661L10.627,25.831ZM11.521,17.95L13.011,18.12L11.521,17.95ZM8.896,29.744L7.753,28.772L7.753,28.772L8.896,29.744ZM38.864,25.661C38.77,24.838 38.027,24.247 37.204,24.34C36.381,24.434 35.79,25.177 35.883,26L38.864,25.661ZM39.104,29.744L37.962,30.717L37.962,30.717L39.104,29.744ZM19.46,8.747L19.946,10.166C20.553,9.959 20.96,9.388 20.96,8.747L19.46,8.747ZM26.308,6.561C26.847,7.19 27.794,7.262 28.423,6.722C29.052,6.183 29.124,5.235 28.584,4.607L26.308,6.561ZM31.405,40.526C31.695,39.751 31.302,38.886 30.526,38.595C29.751,38.305 28.886,38.698 28.595,39.474L31.405,40.526ZM19.405,39.474C19.114,38.698 18.249,38.305 17.474,38.595C16.698,38.886 16.305,39.751 16.595,40.526L19.405,39.474ZM35.554,34.5L12.446,34.5L12.446,37.5L35.554,37.5L35.554,34.5ZM12.117,26L13.011,18.12L10.03,17.781L9.136,25.661L12.117,26ZM10.038,30.717C11.192,29.36 11.921,27.73 12.117,26L9.136,25.661C9.01,26.769 8.541,27.846 7.753,28.772L10.038,30.717ZM35.883,26C36.079,27.73 36.808,29.36 37.962,30.717L40.247,28.772C39.459,27.846 38.99,26.769 38.864,25.661L35.883,26ZM12.446,34.5C11.136,34.5 10.209,33.852 9.781,33.098C9.368,32.371 9.374,31.496 10.038,30.717L7.753,28.772C6.223,30.57 6.176,32.823 7.172,34.579C8.154,36.309 10.099,37.5 12.446,37.5L12.446,34.5ZM35.554,37.5C37.901,37.5 39.846,36.309 40.828,34.579C41.824,32.823 41.777,30.57 40.247,28.772L37.962,30.717C38.626,31.496 38.632,32.371 38.219,33.098C37.791,33.852 36.864,34.5 35.554,34.5L35.554,37.5ZM20.96,8.747L20.96,8.54L17.96,8.54L17.96,8.747L20.96,8.747ZM13.011,18.12C13.417,14.542 16.112,11.479 19.946,10.166L18.974,7.328C14.239,8.95 10.589,12.861 10.03,17.781L13.011,18.12ZM24,2.5C20.664,2.5 17.96,5.204 17.96,8.54L20.96,8.54C20.96,6.861 22.321,5.5 24,5.5L24,2.5ZM24,5.5C24.923,5.5 25.748,5.909 26.308,6.561L28.584,4.607C27.479,3.319 25.834,2.5 24,2.5L24,5.5ZM28.595,39.474C27.95,41.196 26.169,42.5 24,42.5L24,45.5C27.371,45.5 30.303,43.465 31.405,40.526L28.595,39.474ZM24,42.5C21.831,42.5 20.05,41.196 19.405,39.474L16.595,40.526C17.697,43.465 20.629,45.5 24,45.5L24,42.5Z" fill="#1B1E28"/>
</svg>
