<svg width="590" height="112" viewBox="0 0 590 112" fill="none" xmlns="http://www.w3.org/2000/svg" xmlns:xlink="http://www.w3.org/1999/xlink">
<path d="M0,48C0,33.09 0,25.635 2.436,19.754C5.684,11.913 11.913,5.684 19.754,2.436C25.635,0 33.09,0 48,0L542,0C556.91,0 564.366,0 570.246,2.436C578.086,5.684 584.316,11.913 587.564,19.754C590,25.635 590,33.09 590,48L590,64C590,78.91 590,86.365 587.564,92.246C584.316,100.087 578.086,106.316 570.246,109.564C564.366,112 556.91,112 542,112L48,112C33.09,112 25.635,112 19.754,109.564C11.913,106.316 5.684,100.087 2.436,92.246C0,86.365 0,78.91 0,64L0,48Z" fill="#CFD8E2"/>
</svg>
