<svg width="30" height="36" viewBox="0 0 30 36" fill="none" xmlns="http://www.w3.org/2000/svg" xmlns:xlink="http://www.w3.org/1999/xlink">
<path d="M8,3.5L21.905,3.5L21.905,0.5L8,0.5L8,3.5ZM26.405,8L26.405,31.172L29.405,31.172L29.405,8L26.405,8ZM3.5,31.172L3.5,8L0.5,8L0.5,31.172L3.5,31.172ZM25.552,31.525L18.842,24.815L16.721,26.937L23.43,33.646L25.552,31.525ZM11.064,24.815L4.354,31.525L6.475,33.646L13.185,26.937L11.064,24.815ZM18.842,24.815C16.694,22.668 13.212,22.668 11.064,24.815L13.185,26.937C14.161,25.96 15.744,25.96 16.721,26.937L18.842,24.815ZM0.5,31.172C0.5,34.29 4.27,35.851 6.475,33.646L4.354,31.525C4.039,31.84 3.5,31.617 3.5,31.172L0.5,31.172ZM26.405,31.172C26.405,31.617 25.867,31.84 25.552,31.525L23.43,33.646C25.635,35.851 29.405,34.29 29.405,31.172L26.405,31.172ZM21.905,3.5C24.39,3.5 26.405,5.515 26.405,8L29.405,8C29.405,3.858 26.047,0.5 21.905,0.5L21.905,3.5ZM8,0.5C3.858,0.5 0.5,3.858 0.5,8L3.5,8C3.5,5.515 5.515,3.5 8,3.5L8,0.5Z" fill="#FFFFFF"/>
</svg>
