<svg width="28" height="34" viewBox="0 0 28 34" fill="none" xmlns="http://www.w3.org/2000/svg" xmlns:xlink="http://www.w3.org/1999/xlink">
<path d="M11.172,24.328L10.111,23.268L11.172,24.328ZM8,3.5L20,3.5L20,0.5L8,0.5L8,3.5ZM24.5,8L24.5,28.672L27.5,28.672L27.5,8L24.5,8ZM3.5,28.672L3.5,8L0.5,8L0.5,28.672L3.5,28.672ZM23.647,29.025L17.889,23.268L15.768,25.389L21.525,31.146L23.647,29.025ZM10.111,23.268L4.354,29.025L6.475,31.146L12.232,25.389L10.111,23.268ZM17.889,23.268C15.741,21.12 12.259,21.12 10.111,23.268L12.232,25.389C13.209,24.413 14.792,24.413 15.768,25.389L17.889,23.268ZM0.5,28.672C0.5,31.79 4.27,33.351 6.475,31.146L4.354,29.025C4.039,29.34 3.5,29.117 3.5,28.672L0.5,28.672ZM24.5,28.672C24.5,29.117 23.962,29.34 23.647,29.025L21.525,31.146C23.73,33.351 27.5,31.79 27.5,28.672L24.5,28.672ZM20,3.5C22.485,3.5 24.5,5.515 24.5,8L27.5,8C27.5,3.858 24.142,0.5 20,0.5L20,3.5ZM8,0.5C3.858,0.5 0.5,3.858 0.5,8L3.5,8C3.5,5.515 5.515,3.5 8,3.5L8,0.5Z" fill="#FFFFFF"/>
</svg>
