<svg width="750" height="922" viewBox="0 0 750 922" fill="none" xmlns="http://www.w3.org/2000/svg" xmlns:xlink="http://www.w3.org/1999/xlink">
<path d="M0,108.98C0,81.832 0,68.258 4.346,57.075C10.085,42.306 21.445,29.896 35.651,22.878C46.408,17.563 59.717,16.385 86.336,14.03C296.292,-4.549 445.57,-4.845 663.51,14.152C690.184,16.477 703.52,17.639 714.292,22.948C728.522,29.961 739.896,42.369 745.646,57.154C750,68.346 750,81.941 750,109.131L750,826C750,855.82 750,870.73 745.128,882.492C738.632,898.174 726.174,910.632 710.492,917.128C698.73,922 683.82,922 654,922L96,922C66.18,922 51.27,922 39.508,917.128C23.826,910.632 11.367,898.174 4.872,882.492C0,870.73 0,855.82 0,826L0,108.98Z" fill="#FFFFFF"/>
</svg>
