<svg width="26" height="24" viewBox="0 0 26 24" fill="none" xmlns="http://www.w3.org/2000/svg" xmlns:xlink="http://www.w3.org/1999/xlink">
<path d="M11.239,0.691C11.538,-0.23 12.842,-0.23 13.141,0.691L15.333,7.438C15.467,7.85 15.851,8.129 16.284,8.129L23.378,8.129C24.347,8.129 24.75,9.368 23.966,9.938L18.227,14.107C17.876,14.362 17.73,14.813 17.863,15.225L20.056,21.972C20.355,22.893 19.3,23.66 18.517,23.09L12.778,18.92C12.427,18.666 11.953,18.666 11.602,18.92L5.863,23.09C5.079,23.66 4.025,22.893 4.324,21.972L6.516,15.225C6.65,14.813 6.503,14.362 6.153,14.107L0.414,9.938C-0.37,9.368 0.033,8.129 1.002,8.129L8.096,8.129C8.529,8.129 8.913,7.85 9.047,7.438L11.239,0.691Z" fill="#FFD336"/>
</svg>
