<svg width="26" height="24" viewBox="0 0 26 24" fill="none" xmlns="http://www.w3.org/2000/svg" xmlns:xlink="http://www.w3.org/1999/xlink">
<path d="M11.183,0.691C11.481,-0.23 12.778,-0.23 13.076,0.691L15.257,7.438C15.39,7.85 15.772,8.129 16.203,8.129L23.262,8.129C24.226,8.129 24.626,9.368 23.847,9.938L18.136,14.107C17.787,14.362 17.641,14.813 17.775,15.225L19.956,21.972C20.254,22.893 19.204,23.66 18.425,23.09L12.714,18.92C12.365,18.666 11.893,18.666 11.544,18.92L5.834,23.09C5.054,23.66 4.005,22.893 4.303,21.972L6.484,15.225C6.617,14.813 6.471,14.362 6.123,14.107L0.412,9.938C-0.368,9.368 0.033,8.129 0.997,8.129L8.055,8.129C8.487,8.129 8.869,7.85 9.002,7.438L11.183,0.691Z" fill="#FFD336"/>
</svg>
