<svg width="20" height="20" viewBox="0 0 20 20" fill="none" xmlns="http://www.w3.org/2000/svg" xmlns:xlink="http://www.w3.org/1999/xlink">
<path d="M8.157,18.087C7.791,18.453 7.791,19.047 8.157,19.413C8.523,19.779 9.117,19.779 9.483,19.413L8.157,18.087ZM17.57,10L18.233,10.663C18.599,10.297 18.599,9.703 18.233,9.337L17.57,10ZM9.483,0.587C9.117,0.221 8.523,0.221 8.157,0.587C7.791,0.953 7.791,1.547 8.157,1.913L9.483,0.587ZM0.07,9.063C-0.448,9.063 -0.867,9.482 -0.867,10C-0.867,10.518 -0.448,10.938 0.07,10.938L0.07,9.063ZM9.483,19.413L18.233,10.663L16.907,9.337L8.157,18.087L9.483,19.413ZM18.233,9.337L9.483,0.587L8.157,1.913L16.907,10.663L18.233,9.337ZM17.57,9.063L0.07,9.063L0.07,10.938L17.57,10.938L17.57,9.063Z" fill="#000000"/>
</svg>
