<svg width="48" height="40" viewBox="0 0 48 40" fill="none" xmlns="http://www.w3.org/2000/svg" xmlns:xlink="http://www.w3.org/1999/xlink">
<path d="M15.095,40C33.21,40 43.115,24.612 43.115,11.269C43.115,10.832 43.107,10.397 43.088,9.964C45.015,8.534 46.678,6.763 48,4.735C46.235,5.539 44.337,6.08 42.345,6.324C44.378,5.074 45.939,3.097 46.675,0.739C44.742,1.915 42.627,2.744 40.422,3.19C38.625,1.228 36.066,0 33.233,0C27.795,0 23.385,4.522 23.385,10.097C23.385,10.889 23.471,11.66 23.64,12.399C15.455,11.977 8.198,7.959 3.34,1.849C2.465,3.39 2.005,5.141 2.007,6.924C2.007,10.427 3.745,13.52 6.389,15.329C4.825,15.281 3.296,14.847 1.929,14.066C1.928,14.109 1.928,14.15 1.928,14.195C1.928,19.086 5.322,23.169 9.828,24.094C8.982,24.331 8.109,24.45 7.232,24.45C6.61,24.449 5.991,24.388 5.381,24.267C6.635,28.28 10.27,31.199 14.58,31.281C11.21,33.99 6.964,35.603 2.349,35.603C1.555,35.603 0.771,35.557 0,35.464C4.358,38.328 9.534,40 15.096,40Z" fill="#000000"/>
</svg>
