<svg width="30" height="22" viewBox="0 0 30 22" fill="none" xmlns="http://www.w3.org/2000/svg" xmlns:xlink="http://www.w3.org/1999/xlink">
<path d="M13.744,4.569C18.023,4.569 22.137,6.277 25.238,9.341C25.472,9.577 25.845,9.574 26.075,9.334L28.307,6.993C28.423,6.871 28.488,6.706 28.487,6.535C28.486,6.363 28.419,6.199 28.302,6.078C20.163,-2.026 7.324,-2.026 -0.814,6.078C-0.932,6.199 -0.999,6.363 -1,6.535C-1.001,6.706 -0.936,6.871 -0.82,6.993L1.413,9.334C1.642,9.574 2.016,9.577 2.249,9.341C5.35,6.277 9.466,4.569 13.744,4.569ZM13.744,12.184C16.095,12.184 18.362,13.092 20.104,14.731C20.34,14.964 20.711,14.959 20.941,14.72L23.17,12.379C23.288,12.257 23.353,12.09 23.351,11.917C23.349,11.744 23.281,11.579 23.161,11.459C17.855,6.33 9.638,6.33 4.332,11.459C4.212,11.579 4.144,11.744 4.142,11.917C4.141,12.09 4.206,12.257 4.324,12.379L6.552,14.72C6.782,14.959 7.153,14.964 7.389,14.731C9.13,13.093 11.395,12.185 13.744,12.184ZM18.209,17.308C18.213,17.481 18.147,17.649 18.028,17.77L14.172,21.814C14.059,21.933 13.904,22 13.744,22C13.583,22 13.429,21.933 13.316,21.814L9.459,17.77C9.34,17.649 9.274,17.481 9.277,17.308C9.281,17.134 9.353,16.97 9.477,16.853C11.94,14.689 15.547,14.689 18.01,16.853C18.134,16.97 18.206,17.134 18.209,17.308Z" clip-rule="evenodd" fill-rule="evenodd" fill="#1B1E28"/>
</svg>
